<?xml version="1.0" encoding="utf-8"?>
<!-- Generator: Adobe Illustrator 24.1.0, SVG Export Plug-In . SVG Version: 6.00 Build 0)  -->
<svg version="1.1" id="Capa_1" xmlns="http://www.w3.org/2000/svg" xmlns:xlink="http://www.w3.org/1999/xlink" x="0px" y="0px"
	 viewBox="0 0 566.9 566.9" style="enable-background:new 0 0 566.9 566.9;" xml:space="preserve">
<style type="text/css">
	.st0{fill:#263238;stroke:#1DE9B6;stroke-width:25;stroke-miterlimit:10;}
	.st1{fill:none;}
	.st2{enable-background:new    ;}
	.st3{fill:#1DE9B6;}
</style>
<polygon class="st0" points="548.1,282.4 418.8,510.8 154.2,511.9 18.8,284.5 148.1,56.1 412.7,55.1 "/>
<rect x="53.6" y="148" class="st1" width="459.8" height="262"/>
<g>
	<g class="st2">
		<path class="st3" d="M150.6,392.5c-11.8-6.5-20.8-16-26.9-28.5c-6.2-12.5-9.3-27.5-9.3-45V176.4h31.5v143.8
			c0,16.3,4.1,28.9,12.4,37.8c8.2,8.9,19.9,13.4,34.9,13.4c15.1,0,26.8-4.5,35.1-13.4c8.3-8.9,12.4-21.5,12.4-37.8V176.4h31.5v142.7
			c0,17.5-3.1,32.5-9.3,45c-6.2,12.5-15.2,21.9-27,28.5c-11.8,6.5-26.1,9.8-42.8,9.8C176.5,402.3,162.3,399.1,150.6,392.5z"/>
		<path class="st3" d="M366.6,311.9l15.1,28.9L341,400h-34.9L366.6,311.9z M367.6,327.4l-59-87.1h35l46,71.5l60.7,88.1h-34.9
			L367.6,327.4z M377.7,296.9l35-56.6h35L391,326.5L377.7,296.9z"/>
	</g>
</g>
<g>
	<g class="st2">
	</g>
</g>
</svg>
